<svg xmlns="http://www.w3.org/2000/svg" width="450pt" height="450pt" viewBox="0 0 450.00001 449.99999"><defs><clipPath id="a"><path d="M736.578 395.462h96.48v-171.72h-96.48z"/></clipPath><clipPath id="b"><path d="M736.578 643.496h96.48v-171.72h-96.48z"/></clipPath><clipPath id="c"><path d="M846.905 643.496h96.48v-171.72h-96.48z"/></clipPath><clipPath id="d"><path d="M846.486 395.462h96.48v-171.72h-96.48z"/></clipPath><clipPath id="e"><path d="M841.506 526.476h35.64v-35.64h-35.64z"/></clipPath></defs><path fill="#fcb422" d="M220.265 496.122c-34.176 0-61.88 27.703-61.88 61.866v312.815c0 34.176 27.704 61.879 61.88 61.879h312.814c34.176 0 61.867-27.703 61.867-61.88V557.989c0-34.163-27.69-61.866-61.867-61.866z" style="fill:#fae000;fill-opacity:1;stroke-width:12.6671" transform="matrix(1.03079 0 0 1.03079 -163.262 -511.396)"/><path fill="#fff" d="M378.298 552.754c-63.196-.038-114.244 50.744-114.333 113.586-.05 28.5 11.666 52.834 29.312 73.596 32.187 37.849 60.359 77.712 75.736 125.556 1.381 4.307 3.459 9.222 9.4 9.07 6.46-.165 8.195-5.662 9.728-10.311 14.428-43.778 38.546-81.59 69.01-115.942 18.102-20.407 32.63-43.93 35.063-71.57 5.94-67.338-47.312-124.91-113.916-123.985m38.863 114.662c-.152 20.8-18.456 38.99-39.04 38.8-20.774-.19-38.8-18.444-38.723-39.167.076-20.71 18.392-38.875 39.09-38.774 20.673.089 38.825 18.469 38.673 39.141" style="fill:#007dfc;fill-opacity:1;stroke-width:12.6671" transform="matrix(1.03079 0 0 1.03079 -163.262 -511.396)"/></svg>